<?xml version="1.0" standalone="no"?>
<!DOCTYPE svg PUBLIC "-//W3C//DTD SVG 1.1//EN" "http://www.w3.org/Graphics/SVG/1.1/DTD/svg11.dtd" >
<svg xmlns="http://www.w3.org/2000/svg">
<metadata>
Created by FontForge 20120731 at Tue Jul 12 10:51:25 2016
 By admin
</metadata>
<defs>
<font id="ico-family" horiz-adv-x="1024" >
  <font-face 
    font-family="ico-family"
    font-weight="500"
    font-stretch="normal"
    units-per-em="1024"
    panose-1="2 0 6 3 0 0 0 0 0 0"
    ascent="896"
    descent="-128"
    x-height="792"
    bbox="-13 -144 1404.58 897"
    underline-thickness="50"
    underline-position="-100"
    unicode-range="U+0078-E617"
  />
<missing-glyph horiz-adv-x="374" 
d="M34 0v682h272v-682h-272zM68 34h204v614h-204v-614z" />
    <glyph glyph-name=".notdef" horiz-adv-x="374" 
d="M34 0v682h272v-682h-272zM68 34h204v614h-204v-614z" />
    <glyph glyph-name=".null" horiz-adv-x="0" 
 />
    <glyph glyph-name="nonmarkingreturn" horiz-adv-x="341" 
 />
    <glyph glyph-name="x" unicode="x" horiz-adv-x="1001" 
d="M281 543q-27 -1 -53 -1h-83q-18 0 -36.5 -6t-32.5 -18.5t-23 -32t-9 -45.5v-76h912v41q0 16 -0.5 30t-0.5 18q0 13 -5 29t-17 29.5t-31.5 22.5t-49.5 9h-133v-97h-438v97zM955 310v-52q0 -23 0.5 -52t0.5 -58t-10.5 -47.5t-26 -30t-33 -16t-31.5 -4.5q-14 -1 -29.5 -0.5
t-29.5 0.5h-32l-45 128h-439l-44 -128h-29h-34q-20 0 -45 1q-25 0 -41 9.5t-25.5 23t-13.5 29.5t-4 30v167h911zM163 247q-12 0 -21 -8.5t-9 -21.5t9 -21.5t21 -8.5q13 0 22 8.5t9 21.5t-9 21.5t-22 8.5zM316 123q-8 -26 -14 -48q-5 -19 -10.5 -37t-7.5 -25t-3 -15t1 -14.5
t9.5 -10.5t21.5 -4h37h67h81h80h64h36q23 0 34 12t2 38q-5 13 -9.5 30.5t-9.5 34.5q-5 19 -11 39h-368zM336 498v228q0 11 2.5 23t10 21.5t20.5 15.5t34 6h188q31 0 51.5 -14.5t20.5 -52.5v-227h-327z" />
    <glyph glyph-name="uniE600" unicode="&#xe600;" 
d="M800 155q-100 35 -137.5 70.5t-37.5 98.5q0 16 7 27.5t15.5 19t19 28t16.5 51.5q2 10 7.5 15t12 7.5t12.5 7t11.5 19t6.5 38.5q0 10 -2 18t-4.5 12.5t-5.5 7.5t-5 4l-2 2q10 51 14 90q1 17 -3 38t-18 46t-36.5 45t-63.5 34t-93.5 14t-93 -14t-63.5 -34t-37 -45t-18 -46
t-2 -38l14 -90q-3 -1 -6 -3.5t-8.5 -13.5t-5.5 -27q2 -24 7 -38.5t11.5 -19t12.5 -7t11.5 -7.5t7.5 -15q6 -31 16.5 -51.5t19.5 -28t15.5 -19t6.5 -27.5q0 -63 -37.5 -98.5t-137.5 -70.5q-102 -36 -160.5 -69.5t-58.5 -56.5v-109h1012v109q0 23 -59 56.5t-161 69.5z" />
    <glyph glyph-name="uniE601" unicode="&#xe601;" 
d="M510 765q-119 0 -203.5 -82.5t-84.5 -199.5t84.5 -199.5t204 -82.5t203.5 82.5t84 199.5t-84 199.5t-204 82.5zM177 375v260h-10q45 98 137.5 158t205.5 60t206 -60t138 -158h-11v-260q55 0 94 38t39 92q0 36 -18.5 66.5t-49.5 47.5q-43 122 -152 199.5t-245.5 77.5
t-245.5 -77t-152 -200q-32 -17 -50.5 -47.5t-18.5 -66.5q0 -54 39 -92t94 -38zM798 225q-58 -52 -132 -81.5t-156 -29.5t-155.5 29t-131.5 82q-104 -53 -163.5 -143t-59.5 -210h1024q0 120 -60.5 210.5t-165.5 142.5z" />
    <glyph glyph-name="uniE602" unicode="&#xe602;" 
d="M1017 69q-6 17 -20.5 29.5t-26.5 18.5t-37 14.5t-35 12.5q-17 7 -73.5 31.5t-85.5 36.5q-12 3 -44 12q-15 10 -43 71q-5 1 -14.5 2.5t-13.5 1.5q1 17 13 32t15 24q2 8 3.5 32t7.5 34q4 7 16 13.5t15 11.5q10 13 15 41q9 51 -3 78q-2 3 -5.5 9t-4.5 10t-2 11q-1 11 2.5 53
t3.5 43q0 26 -1 36t-8 37q-10 31 -26 41l-33 5l-20 19q-29 17 -60 23t-62 0t-49 -11.5t-43 -15.5q-55 -18 -78 -73.5t-2 -154.5q3 -13 -5 -28t-7 -19q0 -2 1.5 -21t2.5 -28.5t4 -25t8.5 -25.5t13.5 -15q1 0 6.5 -1.5t10.5 -2.5l5 -1q5 -59 7 -83q3 -7 14 -19.5t14 -27.5
l-21 -5q-28 -61 -43 -71q-36 -10 -44 -12q-29 -12 -85.5 -36.5t-73.5 -31.5q-10 -4 -35 -12.5t-37 -14.5t-26.5 -18.5t-20.5 -29.5q0 -11 -1.5 -70.5t-1.5 -84.5h446l33 223l-27 57l62 31l53 -30l-29 -59l52 -222h426q0 25 -1.5 84.5t-1.5 70.5z" />
    <glyph glyph-name="uniE603" unicode="&#xe603;" 
d="M319 424l119 -276q4 12 11.5 32.5t33.5 82.5t55 121.5t74 138t92 144t108.5 128.5t123.5 101q-2 -28 -8 -94.5t-7.5 -101.5t5.5 -90.5t25 -105.5q-48 -12 -121.5 -85.5t-145 -170.5t-135 -199t-97.5 -177q-93 138 -196 239t-183 135z" />
    <glyph glyph-name="uniE604" unicode="&#xe604;" 
d="M931 634q-15 15 -33 17.5t-29 -8.5l-466 -419l-251 250q-6 6 -21.5 0.5t-30 -20.5t-20.5 -30t1 -22l296 -297q10 -8 27 -7q14 2 25 13l511 460q11 11 8.5 29.5t-17.5 33.5z" />
    <glyph glyph-name="uniE605" unicode="&#xe605;" 
d="M665 -60h-33v362q0 10 -8 17.5t-19 7.5h-185q-11 0 -19 -7.5t-8 -17.5v-362h-33v362q0 24 18 41t42 17h185q25 0 42.5 -17t17.5 -41v-362zM883 -93h-742v501h33v-468h676v468h33v-501zM67 371l-23 23l468 468l467 -467l-23 -23l-444 444z" />
    <glyph glyph-name="uniE606" unicode="&#xe606;" 
d="M501.5 736q-83.5 0 -142.5 -58t-59 -140.5t59 -140.5t142.5 -58t142.5 58t59 140.5t-59 140.5t-142.5 58zM501 405q-56 0 -95.5 39t-39.5 93.5t39.5 93.5t95.5 39t96 -39t40 -93.5t-40 -93.5t-96 -39zM501 -21l-141 204l-54 -38l195 -282l196 282l-55 38zM520 889
q-68 0 -135.5 -22t-121.5 -61.5t-87.5 -99.5t-33.5 -129q0 -53 10 -104.5t22.5 -84.5t29 -63t24 -40t11.5 -16l51 43q-3 4 -9 12.5t-20 34t-24.5 54t-19.5 73t-9 91.5q0 48 20.5 89.5t53.5 69.5t74.5 48t83 29t80.5 9q50 0 99 -20.5t88.5 -57t63.5 -91t24 -116.5
q0 -43 -7.5 -81.5t-17 -62t-22 -43t-18 -25.5t-9.5 -9l43 -50q5 4 12 11.5t23.5 31.5t29 53t22.5 76t10 99q0 76 -30 143.5t-78.5 112t-109.5 70.5t-123 26z" />
    <glyph glyph-name="uniE607" unicode="&#xe607;" 
d="M506.5 133q-101.5 0 -173.5 72t-72 173.5t72 173t173.5 71.5t173 -71.5t71.5 -173t-71.5 -173.5t-173 -72zM506 569q-79 0 -135 -56t-56 -135t56 -135t135 -56t135 56t56 135t-56 135t-135 56zM506 678q-11 0 -19 8t-8 20v164q0 11 8 19t19 8t19 -8t8 -19v-164
q0 -12 -8 -20t-19 -8zM506 -141q-11 0 -19 8t-8 20v163q0 12 8 20t19 8t19 -8t8 -20v-163q0 -12 -8 -20t-19 -8zM178 351h-163q-12 0 -20 8t-8 19t8 19t20 8h163q12 0 20 -8t8 -19t-8 -19t-20 -8zM998 351h-164q-12 0 -20 8t-8 19t8 19t20 8h164q11 0 19 -8t8 -19t-8 -19
t-19 -8zM233 624q-11 0 -19 8l-110 109q-8 8 -8 19.5t8 19.5t19.5 8t19.5 -8l109 -110q8 -8 8 -19t-8 -19t-19 -8zM124 -32q-12 0 -20 8t-8 19.5t8 19.5l110 109q8 8 19 8t19 -8t8 -19t-8 -19l-109 -110q-8 -8 -19 -8zM888 -32q-11 0 -19 8l-109 110q-8 8 -8 19t8 19t19 8
t19 -8l110 -109q8 -8 8 -19.5t-8 -19.5t-20 -8zM779 624q-11 0 -19 8t-8 19t8 19l109 110q8 8 19.5 8t19.5 -8t8 -19.5t-8 -19.5l-110 -109q-8 -8 -19 -8z" />
    <glyph glyph-name="uniE608" unicode="&#xe608;" 
d="M394 860h-275q-34 0 -59 -25t-25 -60v-274q0 -35 25 -59.5t59 -24.5h275q35 0 59.5 24.5t24.5 59.5v274q0 35 -24.5 60t-59.5 25zM436 501q0 -17 -12.5 -29.5t-29.5 -12.5h-275q-17 0 -29.5 12.5t-12.5 29.5v274q0 18 12.5 30.5t29.5 12.5h275q17 0 29.5 -12.5
t12.5 -30.5v-274zM900 860h-274q-35 0 -60 -25t-25 -60v-274q0 -35 25 -59.5t60 -24.5h274q35 0 59.5 24.5t24.5 59.5v274q0 35 -24.5 60t-59.5 25zM942 501q0 -17 -12.5 -29.5t-29.5 -12.5h-274q-18 0 -30 12.5t-12 29.5v274q0 18 12 30.5t30 12.5h274q17 0 29.5 -12.5
t12.5 -30.5v-274zM394 353h-275q-34 0 -59 -24.5t-25 -59.5v-274q0 -35 25 -59.5t59 -24.5h275q35 0 59.5 24.5t24.5 59.5v274q0 35 -24.5 59.5t-59.5 24.5zM436 -5q0 -18 -12.5 -30t-29.5 -12h-275q-17 0 -29.5 12t-12.5 30v274q0 18 12.5 30t29.5 12h275q17 0 29.5 -12
t12.5 -30v-274zM900 353h-274q-35 0 -60 -24.5t-25 -59.5v-274q0 -35 25 -59.5t60 -24.5h274q35 0 59.5 24.5t24.5 59.5v274q0 35 -24.5 59.5t-59.5 24.5zM942 -5q0 -18 -12.5 -30t-29.5 -12h-274q-18 0 -30 12t-12 30v274q0 18 12 30t30 12h274q17 0 29.5 -12t12.5 -30
v-274z" />
    <glyph glyph-name="uniE609" unicode="&#xe609;" 
d="M126 641q-12 0 -20.5 -6.5t-8.5 -16t8.5 -16t20.5 -6.5h772q12 0 20.5 6.5t8.5 16t-8.5 16t-20.5 6.5h-772zM97 384q0 -9 8.5 -15.5t20.5 -6.5h634q12 0 20.5 6.5t8.5 15.5t-8.5 15.5t-20.5 6.5h-634q-12 0 -20.5 -6.5t-8.5 -15.5zM97 149.5q0 -9.5 8.5 -16t20.5 -6.5
h454q12 0 20.5 6.5t8.5 16t-8.5 16t-20.5 6.5h-454q-12 0 -20.5 -6.5t-8.5 -16z" />
    <glyph glyph-name="uniE60A" unicode="&#xe60a;" 
d="M505 618q-94 0 -160.5 -66.5t-66.5 -160.5t66.5 -160t160.5 -66t160 66t66 160t-66 160.5t-160 66.5zM504.5 209q-75.5 0 -128.5 53.5t-53 129t53 128.5t128.5 53t129 -53t53.5 -128.5t-53.5 -129t-129 -53.5zM500 666h24q4 0 7.5 3t3.5 8v143q0 5 -3.5 8t-7.5 3h-24
q-4 0 -7.5 -3t-3.5 -8v-143q0 -5 3.5 -8t7.5 -3zM524 103h-24q-4 0 -7.5 -3t-3.5 -8v-144q0 -5 3.5 -8t7.5 -3h24q4 0 7.5 3t3.5 8v144q0 5 -3.5 8t-7.5 3zM725 580q4 -5 11 -5q6 0 10 5l98 95q11 10 0 21l-10 11q-5 5 -11 5t-11 -4l-97 -96q-11 -10 -1 -21zM299 188
q-4 4 -11 4q-6 0 -10 -4l-98 -95q-11 -11 0 -22l10 -10q5 -5 11 -5t11 4l97 95q11 11 1 22zM948 407h-144q-5 0 -8 -3.5t-3 -7.5v-24q0 -4 3 -7.5t8 -3.5h144q5 0 8 3.5t3 7.5v24q0 4 -3 7.5t-8 3.5zM230 372v24q0 4 -3 7.5t-8 3.5h-143q-5 0 -8 -3.5t-3 -7.5v-24
q0 -4 3 -7.5t8 -3.5h143q5 0 8 3.5t3 7.5zM282 585q5 -4 11 -4t11 4l11 11q10 10 0 21l-96 97q-4 5 -10.5 5t-10.5 -5l-11 -10q-11 -11 0 -22zM742 183q-5 4 -11 4t-11 -4l-11 -11q-10 -10 0 -21l96 -97q4 -5 10.5 -5t10.5 4l11 11q11 11 0 22z" />
    <glyph glyph-name="uniE60B" unicode="&#xe60b;" 
d="M740 640q-80 0 -143 -49.5t-87 -127.5q-26 64 -87.5 104t-137.5 40q-100 0 -171 -65t-71 -158t71 -158t171 -65q76 0 137.5 40t87.5 104q24 -78 87 -127.5t143 -49.5q99 0 170 75t71 181t-71 181t-170 75zM284.5 203q-82.5 0 -140.5 53t-58 128t58 128t140.5 53
t140.5 -53t58 -128t-58 -128t-140.5 -53zM740 171q-82 0 -140.5 62.5t-58.5 150.5t58.5 150.5t140.5 62.5t140 -62.5t58 -150.5t-58 -150.5t-140 -62.5z" />
    <glyph glyph-name="uniE60C" unicode="&#xe60c;" 
d="M468 -24l-16 17l-26 -25l-22 22l-17 -17l22 -21l-23 -23l16 -17l24 23l31 -29l16 16l-30 30zM295 141l-16 16l-41 -41l-36 37l-17 -16l37 -38l-39 -39l16 -17l39 39l49 -49l16 16l-48 50zM429 73l17 17l-27 28l22 23l-17 16l-22 -22l-20 20l-16 -17l20 -20l-22 -22
l17 -16l21 21zM727 84h-29l17 18q7 7 0 14t-13 0l-30 -32h-37l65 68q7 7 0.5 13.5t-13.5 -0.5l-65 -67v38l30 31q7 7 0.5 14t-13.5 0l-17 -18v30q0 10 -9 10t-9 -10v-30l-18 18q-6 7 -12.5 0t-0.5 -14l31 -31v-38l-65 67q-7 7 -13.5 0.5t0.5 -13.5l65 -68h-37l-30 32
q-7 7 -13.5 0t0.5 -14l17 -18h-29q-9 0 -9 -9.5t9 -9.5h29l-17 -18q-7 -6 0 -13q2 -3 6 -3t7 3l30 31h37l-65 -67q-7 -7 0 -14q2 -2 6 -2t7 2l65 68v-38l-31 -32q-6 -6 0.5 -13t12.5 0l18 18v-30q0 -10 9 -10t9 10v30l17 -18q3 -3 7 -3t6 3q7 7 0 13l-30 32v38l65 -68
q3 -2 6.5 -2t6.5 2q7 7 0 14l-65 67h37l30 -31q3 -3 6.5 -3t6.5 3q7 7 0 13l-17 18h29q9 0 9 9.5t-9 9.5zM730 688q-16 75 -77 124.5t-141 49.5t-141 -49.5t-77 -124.5q-90 -2 -159.5 -65t-69.5 -148v-37q0 -88 63 -150.5t151 -62.5h466q88 0 151 62.5t63 150.5v37
q0 85 -69.5 148t-159.5 65zM912 438q0 -68 -49 -117t-118 -49h-466q-69 0 -118 49t-49 117v37q0 63 53 112.5t124 52.5h47q0 73 51.5 124t124.5 51t124.5 -51t51.5 -124h47q71 -3 124 -52.5t53 -112.5v-37z" />
    <glyph glyph-name="uniE60D" unicode="&#xe60d;" 
d="M816 638v-3q-13 45 -49.5 73.5t-82.5 28.5t-82 -28.5t-49 -73.5v3q-63 0 -108 -50h-4q-66 0 -117 -42.5t-66 -108.5q-75 -1 -134 -56.5t-59 -130.5v-32q0 -78 53 -132.5t128 -54.5h391q75 0 128 54.5t53 132.5v32q0 47 -26 90h35q55 0 93.5 40t38.5 97v24q0 56 -44 96.5
t-99 40.5zM773 218q0 -59 -40 -100.5t-96 -41.5h-391q-57 0 -96.5 41.5t-39.5 100.5v32q0 56 46 99t105 43v1h37q0 63 42 107t101.5 44t101.5 -44t42 -107h37v-1q59 0 105 -43t46 -99v-32zM914 477q0 -38 -25.5 -65.5t-61.5 -27.5h-72q-57 52 -130 53q-11 50 -44 87.5
t-80 53.5q19 16 52 16h39q0 40 27 69t65.5 29t65.5 -29t27 -69h39q36 0 67 -27.5t31 -65.5v-24z" />
    <glyph glyph-name="uniE60E" unicode="&#xe60e;" 
d="M730 684q-16 75 -77 124.5t-141 49.5t-141 -49.5t-77 -124.5q-89 -2 -159 -64.5t-70 -147.5v-37q0 -88 63 -150t151 -62h466q88 0 151 62t63 150v37q0 85 -69.5 147.5t-159.5 64.5zM911 435q0 -68 -48.5 -116.5t-117.5 -48.5h-466q-69 0 -117.5 48.5t-48.5 116.5v37
q0 63 54 113t125 52h44q0 72 51.5 123t124.5 51t124.5 -51t51.5 -123h44q71 -2 125 -52t54 -113v-37zM277 187h-32q-5 0 -8.5 -3.5t-3.5 -8.5v-253q0 -5 3.5 -8.5t8.5 -3.5h32q5 0 8.5 3.5t3.5 8.5v253q0 5 -3.5 8.5t-8.5 3.5zM437 187h-18q-7 0 -13 -5.5t-6 -13.5v-166
q0 -7 6 -13t13 -6h18q8 0 13.5 6t5.5 13v166q0 8 -5.5 13.5t-13.5 5.5zM630 187h-32q-5 0 -8.5 -3.5t-3.5 -8.5v-253q0 -5 3.5 -8.5t8.5 -3.5h32q5 0 8.5 3.5t3.5 8.5v253q0 5 -3.5 8.5t-8.5 3.5zM790 187h-18q-7 0 -13 -5.5t-6 -13.5v-166q0 -7 6 -13t13 -6h18q8 0 13.5 6
t5.5 13v166q0 8 -5.5 13.5t-13.5 5.5z" />
    <glyph glyph-name="uniE60F" unicode="&#xe60f;" 
d="M959.5 492q-6.5 19 -25.5 22l-271 41l-121 260q-9 18 -29 18q-21 0 -29 -18l-122 -259l-272 -41q-19 -3 -25.5 -21.5t7.5 -32.5l197 -202l-47 -286q-3 -20 13 -31.5t34 -1.5l242 133l242 -134q8 -4 16 -4h1q13 0 22.5 9.5t9.5 22.5q0 6 -2 11l-45 280l197 201
q14 14 7.5 33z" />
    <glyph glyph-name="uniE610" unicode="&#xe610;" 
d="M512 -128q-96 0 -164.5 66.5t-68.5 161.5q0 85 58 150v475q0 71 51.5 121t123.5 50t123.5 -50t51.5 -121v-475q58 -65 58 -150q0 -95 -68.5 -161.5t-164.5 -66.5zM570 198v527q0 24 -17 40.5t-41 16.5t-41 -16.5t-17 -40.5v-527q-27 -16 -42.5 -42t-15.5 -56
q0 -48 34 -81t82 -33t82 33t34 81q0 30 -15.5 56t-42.5 42zM512 14q-36 0 -61.5 25t-25.5 61q0 27 16 49t42 31v291h58v-291q26 -9 42 -31t16 -49q0 -36 -25.5 -61t-61.5 -25z" />
    <glyph glyph-name="uniE611" unicode="&#xe611;" 
d="M512 806q-13 -13 -35 -37t-78 -92.5t-99 -130.5t-78 -135.5t-35 -123.5q0 -89 43.5 -163.5t118.5 -118t163 -43.5t163 43.5t118.5 118t43.5 163.5q0 50 -33.5 122t-81.5 139t-95.5 126.5t-81 96t-33.5 35.5zM512 27q-7 0 -11.5 4.5t-4.5 11.5t4.5 11.5t11.5 4.5
q94 0 160.5 66.5t66.5 161.5q0 6 5 11t11.5 5t11.5 -5t5 -11q0 -108 -76 -184t-184 -76z" />
    <glyph glyph-name="uniE612" unicode="&#xe612;" 
d="M472 68v59q0 16 12 27.5t28 11.5t28 -11.5t12 -27.5v-59q0 -17 11.5 -28.5t27.5 -11.5t28 11.5t12 28t11.5 28t28 11.5t28 -11.5t11.5 -27.5q0 -4 -1 -8q-3 -47 -37 -79t-81 -32q-49 0 -84 34.5t-35 84.5zM552 265v435q0 17 -12 28.5t-28 11.5t-28 -11.5t-12 -28.5v-435
q0 -49 -34.5 -83.5t-83.5 -34.5q-47 0 -81 32t-37 78q-1 4 -1 8q0 17 11.5 28.5t28 11.5t28 -11.5t11.5 -28t11.5 -28t28 -11.5t28 11.5t11.5 27.5v435q0 50 35 84.5t84 34.5q47 0 81 -32t37 -79q1 -4 1 -8v-435q0 -16 11.5 -27.5t28 -11.5t28 11.5t11.5 28t11.5 28t28 11.5
t28 -11.5t11.5 -28.5q0 -4 -1 -8q-3 -46 -37 -78t-81 -32q-49 0 -83.5 34.5t-34.5 83.5z" />
    <glyph glyph-name="uniE613" unicode="&#xe613;" horiz-adv-x="1405" 
d="M0 684l96 -690q8 -50 43.5 -86t76.5 -36h972q42 0 77.5 36t43.5 86l95 690q3 19 -9.5 30.5t-26.5 2.5l-308 -153l-338 321q-8 11 -19.5 11t-19.5 -11l-338 -321l-308 153q-14 9 -26.5 -2.5t-10.5 -30.5z" />
    <glyph glyph-name="uniE614" unicode="&#xe614;" 
d="M950 -96l-270 272q81 96 81 222q0 95 -46.5 175t-127 126.5t-175 46.5t-174.5 -46.5t-126.5 -126.5t-46.5 -174.5t46.5 -174.5t126.5 -126.5t175 -46.5q130 0 228 85l270 -272q8 -8 19.5 -8t19.5 8.5t8 20t-8 19.5zM413 106q-121 0 -207 85.5t-86 207t86 207t207 85.5
t206.5 -85.5t85.5 -207t-85.5 -207t-206.5 -85.5z" />
    <glyph glyph-name="uniE615" unicode="&#xe615;" 
d="M195 120q0 -22 15.5 -37.5t37.5 -15.5h528q22 0 37.5 15.5t15.5 37.5v145q0 22 -15.5 37.5t-37.5 15.5h-158v139q0 13 -10 23t-23.5 10t-23 -10t-9.5 -23v-139h-304q-22 0 -37.5 -15.5t-15.5 -37.5v-145zM261 193q0 13 9.5 23t23.5 10t23.5 -10t9.5 -23.5t-9.5 -23.5
t-23.5 -10t-23.5 10t-9.5 24v0zM380 193q0 13 9.5 23t23.5 10t23.5 -10t9.5 -23.5t-9.5 -23.5t-23.5 -10t-23.5 10t-9.5 24v0v0zM585 595q-58 0 -98.5 -40.5t-40.5 -97.5q0 -14 9.5 -23.5t23.5 -9.5t23.5 9.5t9.5 23.5q0 30 21.5 51t51.5 21t51 -21t21 -51q0 -14 10 -23.5
t23.5 -9.5t23 9.5t9.5 23.5q0 57 -40.5 97.5t-97.5 40.5v0v0zM585 701q-102 0 -173.5 -71.5t-71.5 -172.5q0 -14 10 -23.5t23.5 -9.5t23 9.5t9.5 23.5q0 74 52.5 126t126.5 52t126 -52t52 -126q0 -14 9.5 -23.5t23.5 -9.5t23.5 9.5t9.5 23.5q0 101 -71.5 172.5t-172.5 71.5
v0v0z" />
    <glyph glyph-name="uniE616" unicode="&#xe616;" 
d="M849 376q-7 -15 -25 -14h-67q-10 0 -12 -2t-2 -11v-255q0 -11 -2 -17q-6 -12 -26 -12h-203h-203q-20 0 -26 12q-2 6 -2 17v9v9v20v27v76v21v46v47q0 9 -2 11t-12 2h-67q-14 0 -21 7q-2 3 -4 7q-5 11 5 24q1 2 4 5q13 12 38 35t35 32q95 89 170 158l8 8l6 6q27 25 35 32
q10 9 21 19q2 2 13 8h4q11 -6 13 -8q6 -5 70 -65q76 -70 170 -158q10 -9 35 -32t38 -35q15 -15 9 -29zM650 349h-135l-1 1v1q8 9 24.5 25t23.5 23l26 27q19 18 29 29h-4h-23h-23h-83q-6 0 -10 -5q-16 -22 -34 -46q-8 -11 -41 -54q-3 -5 -7.5 -11t-10 -13.5t-8.5 -11.5h106
q-30 -59 -69 -138l1 -1q85 61 151 108q40 28 46 33q13 10 43 31q0 1 -1 2z" />
    <glyph glyph-name="uniE617" unicode="&#xe617;" 
d="M168 359v345h295v-345h-295zM168 162v50h294v-50h-294zM561 359v50v49h295v-45v-54h-295zM168 64v49h294v-49h-294zM561 605v99h295v-99h-295zM561 64v197h295v-197h-295z" />
  </font>
</defs>
</svg>
